<?xml version="1.0" encoding="UTF-8"?>
<svg version="1.1" xmlns="http://www.w3.org/2000/svg" width="512" height="512">
<path d="M0 0 C3.66944815 3.00099539 6.96937735 6.29600157 10.25927734 9.70410156 C10.99662109 10.41050781 11.73396484 11.11691406 12.49365234 11.84472656 C25.31131979 24.86111753 30.5911446 43.35368285 30.75927734 61.14160156 C30.56518469 81.70025942 24.20848989 99.48747845 9.77490234 114.25097656 C8.94474609 115.06050781 8.11458984 115.87003906 7.25927734 116.70410156 C6.49099609 117.47238281 5.72271484 118.24066406 4.93115234 119.03222656 C4.37943359 119.58394531 3.82771484 120.13566406 3.25927734 120.70410156 C4.77866056 124.38568398 6.97150085 126.46779899 9.88427734 129.14160156 C23.02904362 142.07772076 30.36155228 159.90425307 30.64013672 178.26660156 C30.60104051 198.70088832 25.99801613 217.6490291 11.38671875 232.68041992 C10.02330575 234.03425117 8.64166851 235.36965459 7.25927734 236.70410156 C6.55287109 237.44144531 5.84646484 238.17878906 5.11865234 238.93847656 C0.77098874 243.21976363 -3.9841294 246.17089898 -9.36572266 248.95410156 C-10.26907349 249.43024902 -10.26907349 249.43024902 -11.19067383 249.91601562 C-23.10846272 255.73643788 -35.20155774 257.30048349 -48.30493164 257.15820312 C-49.79480966 257.1570711 -51.28468991 257.1577154 -52.77456665 257.15997314 C-56.76755504 257.16110742 -60.76004971 257.13781041 -64.75292468 257.10967731 C-68.94488098 257.08444558 -73.13685216 257.08230469 -77.32887268 257.07757568 C-85.24394942 257.06520921 -93.15880165 257.03247458 -101.07378012 256.99217772 C-110.09448072 256.94726139 -119.1151928 256.92542335 -128.13597763 256.90539598 C-146.67101928 256.86373529 -165.20585283 256.79350821 -183.74072266 256.70410156 C-183.93629415 257.36914137 -184.13186563 258.03418118 -184.33336353 258.7193737 C-186.93674698 267.49878745 -186.93674698 267.49878745 -188.55004883 271.60302734 C-188.87015427 272.42312286 -189.1902597 273.24321838 -189.52006531 274.08816528 C-190.02181023 275.35598343 -190.02181023 275.35598343 -190.53369141 276.64941406 C-190.88458328 277.54530243 -191.23547516 278.4411908 -191.59700012 279.36422729 C-192.70369416 282.1873266 -193.815853 285.00823445 -194.92822266 287.82910156 C-195.6857487 289.75864597 -196.44291345 291.68833226 -197.19970703 293.61816406 C-199.04254481 298.31512509 -200.89028221 303.01013082 -202.74072266 307.70410156 C-204.30619398 307.24142379 -205.87110654 306.77685525 -207.43579102 306.31152344 C-208.30731308 306.05302612 -209.17883514 305.79452881 -210.07676697 305.52819824 C-214.21541971 304.24790293 -218.25924186 302.75401219 -222.30322266 301.20410156 C-223.10824219 300.90890625 -223.91326172 300.61371094 -224.74267578 300.30957031 C-225.88833008 299.87064453 -225.88833008 299.87064453 -227.05712891 299.42285156 C-227.74234619 299.16439453 -228.42756348 298.9059375 -229.13354492 298.63964844 C-230.74072266 297.70410156 -230.74072266 297.70410156 -231.74072266 294.70410156 C-230.84315251 291.84119134 -229.86947451 289.10489796 -228.77587891 286.31738281 C-228.36154602 285.2308844 -228.36154602 285.2308844 -227.93884277 284.12243652 C-226.90382707 281.41657136 -225.85254045 278.71695264 -224.80322266 276.01660156 C-222.47259766 269.97347656 -220.14197266 263.93035156 -217.74072266 257.70410156 C-236.22072266 257.37410156 -254.70072266 257.04410156 -273.74072266 256.70410156 C-274.73072266 260.00410156 -275.72072266 263.30410156 -276.74072266 266.70410156 C-277.31712593 268.34669329 -277.91320975 269.98290873 -278.55004883 271.60302734 C-278.87015427 272.42312286 -279.1902597 273.24321838 -279.52006531 274.08816528 C-279.85456192 274.93337738 -280.18905853 275.77858948 -280.53369141 276.64941406 C-280.88458328 277.54530243 -281.23547516 278.4411908 -281.59700012 279.36422729 C-282.70369416 282.1873266 -283.815853 285.00823445 -284.92822266 287.82910156 C-285.6857487 289.75864597 -286.44291345 291.68833226 -287.19970703 293.61816406 C-289.04254481 298.31512509 -290.89028221 303.01013082 -292.74072266 307.70410156 C-294.30619398 307.24142379 -295.87110654 306.77685525 -297.43579102 306.31152344 C-298.30731308 306.05302612 -299.17883514 305.79452881 -300.07676697 305.52819824 C-304.21541971 304.24790293 -308.25924186 302.75401219 -312.30322266 301.20410156 C-313.10824219 300.90890625 -313.91326172 300.61371094 -314.74267578 300.30957031 C-315.88833008 299.87064453 -315.88833008 299.87064453 -317.05712891 299.42285156 C-317.74234619 299.16439453 -318.42756348 298.9059375 -319.13354492 298.63964844 C-320.74072266 297.70410156 -320.74072266 297.70410156 -321.74072266 294.70410156 C-320.84289311 291.84036392 -319.8696092 289.1056602 -318.77587891 286.31738281 C-318.46371933 285.50037399 -318.15155975 284.68336517 -317.8299408 283.84159851 C-316.82973924 281.22982499 -315.81667004 278.62326018 -314.80322266 276.01660156 C-314.12333361 274.24804888 -313.44428641 272.47917232 -312.76611328 270.70996094 C-311.10073263 266.37085426 -309.42379382 262.03637538 -307.74072266 257.70410156 C-309.03469971 257.64424072 -310.32867676 257.58437988 -311.66186523 257.52270508 C-313.3821708 257.43883065 -315.10246652 257.35475419 -316.82275391 257.27050781 C-318.09801941 257.21231873 -318.09801941 257.21231873 -319.39904785 257.1529541 C-339.39916505 256.15511745 -358.2793997 247.23987978 -372.12744141 232.59863281 C-387.89853431 214.07809998 -392.62812494 193.50306474 -390.74072266 169.70410156 C-388.36905792 150.29844898 -376.02746808 133.01109248 -361.11181641 121.05957031 C-353.24838132 115.33066409 -344.51497117 111.18749152 -334.99072266 109.32910156 C-332.02824084 108.60580277 -332.02824084 108.60580277 -329.74072266 106.70410156 C-328.11106014 102.35525711 -327.37136496 98.15608785 -326.64697266 93.58691406 C-325.41371379 86.07174286 -322.15258485 79.45241552 -318.74072266 72.70410156 C-317.93828125 71.11662109 -317.93828125 71.11662109 -317.11962891 69.49707031 C-303.70558791 44.95291376 -280.35147649 27.74885536 -253.80322266 19.89160156 C-227.81030707 12.30578755 -200.6816745 15.83008127 -176.74072266 27.70410156 C-175.72107422 28.20039063 -174.70142578 28.69667969 -173.65087891 29.20800781 C-167.01633505 32.6229834 -161.41018739 36.87923174 -155.74072266 41.70410156 C-155.09103516 42.23132813 -154.44134766 42.75855469 -153.77197266 43.30175781 C-149.60633397 46.72744753 -146.12698922 50.51158105 -142.74072266 54.70410156 C-139.48143861 53.6227267 -136.22758193 52.52825895 -132.97900391 51.41503906 C-131.67042685 50.9696775 -130.3618329 50.52436558 -129.05322266 50.07910156 C-128.05838867 49.73492187 -128.05838867 49.73492187 -127.04345703 49.38378906 C-124.14510799 48.40307881 -121.82349612 47.70410156 -118.74072266 47.70410156 C-118.67884766 46.81722656 -118.61697266 45.93035156 -118.55322266 45.01660156 C-116.41483168 30.34486348 -107.86025748 18.02173494 -97.74072266 7.70410156 C-97.00208984 6.929375 -96.26345703 6.15464844 -95.50244141 5.35644531 C-70.88150939 -18.76793009 -27.37799191 -20.38182063 0 0 Z " fill="#384949" transform="translate(390.74072265625,104.2958984375)"/>
<path d="M0 0 C1.88713487 1.88713487 1.12285636 4.63780688 1.12908131 7.14889771 C1.12616847 8.04090297 1.12325563 8.93290824 1.12025452 9.85194397 C1.12153615 11.26205117 1.12153615 11.26205117 1.12284368 12.70064539 C1.12450136 15.87605137 1.11897243 19.05140546 1.11352539 22.22680664 C1.11324355 24.49293517 1.11340118 26.75906379 1.1139679 29.02519226 C1.11425601 35.19849782 1.10835703 41.37178413 1.10139394 47.54508519 C1.09516272 53.98866889 1.09455679 60.43225298 1.09336853 66.87583923 C1.09060882 77.69791031 1.08435327 88.51997345 1.07543945 99.34204102 C1.06626607 110.49080367 1.05918488 121.63956441 1.05493164 132.78833008 C1.05466892 133.47507634 1.05440619 134.1618226 1.05413551 134.86937935 C1.05283051 138.31444509 1.05156679 141.75951085 1.05032361 145.20457661 C1.0399501 173.80305587 1.02225689 202.40152766 1 231 C-0.32 231 -1.64 231 -3 231 C-3.17255814 231.60649384 -3.34511627 232.21298767 -3.52290344 232.83786011 C-5.31987246 239.00688932 -7.42936847 244.97292452 -9.79296875 250.9453125 C-10.14386063 251.84120087 -10.4947525 252.73708923 -10.85627747 253.66012573 C-11.96297151 256.48322504 -13.07513035 259.30413289 -14.1875 262.125 C-14.94502604 264.05454441 -15.70219079 265.98423069 -16.45898438 267.9140625 C-18.30182215 272.61102352 -20.14955955 277.30602926 -22 282 C-23.56547133 281.53732223 -25.13038389 281.07275369 -26.69506836 280.60742188 C-27.56659042 280.34892456 -28.43811249 280.09042725 -29.33604431 279.82409668 C-33.47469705 278.54380137 -37.5185192 277.04991063 -41.5625 275.5 C-42.36751953 275.20480469 -43.17253906 274.90960938 -44.00195312 274.60546875 C-45.14760742 274.16654297 -45.14760742 274.16654297 -46.31640625 273.71875 C-47.00162354 273.46029297 -47.68684082 273.20183594 -48.39282227 272.93554688 C-50 272 -50 272 -51 269 C-50.10242986 266.13708977 -49.12875186 263.4007964 -48.03515625 260.61328125 C-47.62082336 259.52678284 -47.62082336 259.52678284 -47.19812012 258.41833496 C-46.16310441 255.7124698 -45.11181779 253.01285108 -44.0625 250.3125 C-41.731875 244.269375 -39.40125 238.22625 -37 232 C-55.48 231.67 -73.96 231.34 -93 231 C-93.99 234.3 -94.98 237.6 -96 241 C-96.57640328 242.64259173 -97.17248709 244.27880717 -97.80932617 245.89892578 C-98.12943161 246.7190213 -98.44953705 247.53911682 -98.77934265 248.38406372 C-99.11383926 249.22927582 -99.44833588 250.07448792 -99.79296875 250.9453125 C-100.14386063 251.84120087 -100.4947525 252.73708923 -100.85627747 253.66012573 C-101.96297151 256.48322504 -103.07513035 259.30413289 -104.1875 262.125 C-104.94502604 264.05454441 -105.70219079 265.98423069 -106.45898438 267.9140625 C-108.30182215 272.61102352 -110.14955955 277.30602926 -112 282 C-113.56547133 281.53732223 -115.13038389 281.07275369 -116.69506836 280.60742188 C-117.56659042 280.34892456 -118.43811249 280.09042725 -119.33604431 279.82409668 C-123.47469705 278.54380137 -127.5185192 277.04991063 -131.5625 275.5 C-132.36751953 275.20480469 -133.17253906 274.90960938 -134.00195312 274.60546875 C-135.14760742 274.16654297 -135.14760742 274.16654297 -136.31640625 273.71875 C-137.00162354 273.46029297 -137.68684082 273.20183594 -138.39282227 272.93554688 C-140 272 -140 272 -141 269 C-140.10217045 266.13626236 -139.12888654 263.40155864 -138.03515625 260.61328125 C-137.72299667 259.79627243 -137.4108371 258.97926361 -137.08921814 258.13749695 C-136.08901658 255.52572343 -135.07594738 252.91915862 -134.0625 250.3125 C-133.38261096 248.54394732 -132.70356376 246.77507076 -132.02539062 245.00585938 C-130.36000997 240.6667527 -128.68307117 236.33227382 -127 232 C-128.29397705 231.94013916 -129.5879541 231.88027832 -130.92114258 231.81860352 C-132.64144814 231.73472909 -134.36174386 231.65065263 -136.08203125 231.56640625 C-137.35729675 231.50821716 -137.35729675 231.50821716 -138.6583252 231.44885254 C-158.65844239 230.45101589 -177.53867704 221.53577821 -191.38671875 206.89453125 C-207.15781165 188.37399842 -211.88740228 167.79896318 -210 144 C-207.62833527 124.59434742 -195.28674542 107.30699092 -180.37109375 95.35546875 C-172.50765867 89.62656253 -163.77424851 85.48338995 -154.25 83.625 C-151.28751818 82.90170121 -151.28751818 82.90170121 -149 81 C-147.37033748 76.65115554 -146.6306423 72.45198629 -145.90625 67.8828125 C-144.67299114 60.3676413 -141.4118622 53.74831396 -138 47 C-137.19755859 45.41251953 -137.19755859 45.41251953 -136.37890625 43.79296875 C-122.96486525 19.2488122 -99.61075384 2.0447538 -73.0625 -5.8125 C-49.57792383 -12.66627623 -21.99069817 -11.05700525 0 0 Z " fill="#49686E" transform="translate(210,130)"/>
<path d="M0 0 C3.66944815 3.00099539 6.96937735 6.29600157 10.25927734 9.70410156 C10.99662109 10.41050781 11.73396484 11.11691406 12.49365234 11.84472656 C25.31131979 24.86111753 30.5911446 43.35368285 30.75927734 61.14160156 C30.56591444 81.62296324 24.25850027 99.43427435 9.87255859 114.15332031 C9.01017578 114.99507812 8.14779297 115.83683594 7.25927734 116.70410156 C6.31398908 117.6468324 5.36992926 118.59079701 4.42724609 119.53613281 C3.35410156 120.60927734 3.35410156 120.60927734 2.25927734 121.70410156 C-1.42031147 120.33313508 -4.83892583 118.64844909 -8.31225586 116.83666992 C-13.84402498 113.95404669 -18.89941987 111.43973353 -25.05322266 110.14160156 C-29.50916275 109.05916008 -29.50916275 109.05916008 -31.61572266 105.82910156 C-32.01334548 104.46047229 -32.38444802 103.08407199 -32.74072266 101.70410156 C-40.35374112 79.94016711 -52.25001294 64.27439111 -73.29101562 54.08203125 C-88.41366176 47.14726995 -102.3921335 47.19957537 -118.74072266 47.70410156 C-116.8759193 31.76304062 -108.76735813 18.94659287 -97.74072266 7.70410156 C-96.63277344 6.54201172 -96.63277344 6.54201172 -95.50244141 5.35644531 C-70.88150939 -18.76793009 -27.37799191 -20.38182063 0 0 Z " fill="#FEBB33" transform="translate(390.74072265625,104.2958984375)"/>
<path d="M0 0 C9.9 0 19.8 0 30 0 C30.33 10.56 30.66 21.12 31 32 C39.05032325 27.44283685 39.05032325 27.44283685 47.09472656 22.87524414 C48.09987305 22.30926514 49.10501953 21.74328613 50.140625 21.16015625 C51.68024902 20.28822632 51.68024902 20.28822632 53.25097656 19.39868164 C55.56423521 18.22171372 57.46718891 17.46894097 60 17 C63.97637568 22.61370684 67.48831766 28.45603611 70.875 34.4375 C71.28032959 35.14777344 71.68565918 35.85804688 72.10327148 36.58984375 C75 41.75614198 75 41.75614198 75 44 C71.33700801 46.14174527 67.67079509 48.27783199 64.00146484 50.40869141 C62.75316303 51.1346749 61.50576135 51.86220842 60.25927734 52.59130859 C58.4694574 53.63786202 56.67649488 54.67883383 54.8828125 55.71875 C53.26463623 56.66137695 53.26463623 56.66137695 51.61376953 57.62304688 C49 59 49 59 47 59 C47 59.66 47 60.32 47 61 C47.71115967 61.26731934 48.42231934 61.53463867 49.1550293 61.81005859 C52.08642318 63.03614748 54.75947007 64.46629021 57.51953125 66.0390625 C58.54111328 66.61914062 59.56269531 67.19921875 60.61523438 67.796875 C61.67033203 68.40015625 62.72542969 69.0034375 63.8125 69.625 C64.88693359 70.23601562 65.96136719 70.84703125 67.06835938 71.4765625 C69.71386076 72.98155885 72.3576625 74.48945791 75 76 C73.14517923 81.99797908 70.33103338 86.94989021 67.125 92.3125 C66.59519531 93.23095703 66.06539063 94.14941406 65.51953125 95.09570312 C65.00003906 95.96775391 64.48054688 96.83980469 63.9453125 97.73828125 C63.24172607 98.92997925 63.24172607 98.92997925 62.52392578 100.14575195 C61 102 61 102 59.1640625 102.94946289 C55.95734388 103.02434903 54.15901199 101.7144239 51.4296875 100.0703125 C50.36878906 99.43996094 49.30789063 98.80960937 48.21484375 98.16015625 C47.11269531 97.48855469 46.01054687 96.81695312 44.875 96.125 C42.68493847 94.81503288 40.49483638 93.50513357 38.3046875 92.1953125 C37.33515137 91.60766113 36.36561523 91.02000977 35.36669922 90.41455078 C33.09112653 89.01431301 33.09112653 89.01431301 31 88 C30.67 98.56 30.34 109.12 30 120 C20.1 120 10.2 120 0 120 C-0.33 109.44 -0.66 98.88 -1 88 C-9.05032325 92.55716315 -9.05032325 92.55716315 -17.09472656 97.12475586 C-18.09987305 97.69073486 -19.10501953 98.25671387 -20.140625 98.83984375 C-21.16704102 99.42113037 -22.19345703 100.00241699 -23.25097656 100.60131836 C-25.56423521 101.77828628 -27.46718891 102.53105903 -30 103 C-33.97637568 97.38629316 -37.48831766 91.54396389 -40.875 85.5625 C-41.28032959 84.85222656 -41.68565918 84.14195312 -42.10327148 83.41015625 C-45 78.24385802 -45 78.24385802 -45 76 C-41.33700801 73.85825473 -37.67079509 71.72216801 -34.00146484 69.59130859 C-32.75316303 68.8653251 -31.50576135 68.13779158 -30.25927734 67.40869141 C-28.4694574 66.36213798 -26.67649488 65.32116617 -24.8828125 64.28125 C-23.80402832 63.65283203 -22.72524414 63.02441406 -21.61376953 62.37695312 C-19 61 -19 61 -17 61 C-17 60.34 -17 59.68 -17 59 C-17.71115967 58.73268066 -18.42231934 58.46536133 -19.1550293 58.18994141 C-22.08642318 56.96385252 -24.75947007 55.53370979 -27.51953125 53.9609375 C-28.54111328 53.38085938 -29.56269531 52.80078125 -30.61523438 52.203125 C-31.67033203 51.59984375 -32.72542969 50.9965625 -33.8125 50.375 C-35.42415039 49.45847656 -35.42415039 49.45847656 -37.06835938 48.5234375 C-39.71386076 47.01844115 -42.3576625 45.51054209 -45 44 C-43.14517923 38.00202092 -40.33103338 33.05010979 -37.125 27.6875 C-36.33029297 26.30981445 -36.33029297 26.30981445 -35.51953125 24.90429688 C-35.00003906 24.03224609 -34.48054687 23.16019531 -33.9453125 22.26171875 C-33.24172607 21.07002075 -33.24172607 21.07002075 -32.52392578 19.85424805 C-31 18 -31 18 -29.1640625 17.05053711 C-25.95734388 16.97565097 -24.15901199 18.2855761 -21.4296875 19.9296875 C-20.36878906 20.56003906 -19.30789062 21.19039063 -18.21484375 21.83984375 C-17.11269531 22.51144531 -16.01054687 23.18304688 -14.875 23.875 C-12.68493847 25.18496712 -10.49483638 26.49486643 -8.3046875 27.8046875 C-7.33515137 28.39233887 -6.36561523 28.97999023 -5.36669922 29.58544922 C-3.09112653 30.98568699 -3.09112653 30.98568699 -1 32 C-0.67 21.44 -0.34 10.88 0 0 Z " fill="#D5E8FE" transform="translate(271,392)"/>
<path d="M0 0 C0 29.37 0 58.74 0 89 C-1.65 87.35 -3.3 85.7 -5 84 C-19.72000895 69.59624124 -37.98572591 60.702858 -58.67773438 60.82421875 C-59.79470703 60.84097656 -60.91167969 60.85773438 -62.0625 60.875 C-63.79016602 60.88853516 -63.79016602 60.88853516 -65.55273438 60.90234375 C-68.36871193 60.92571286 -71.18424158 60.95847435 -74 61 C-72.13519664 45.05893906 -64.02663547 32.2424913 -53 21 C-51.89205078 19.83791016 -51.89205078 19.83791016 -50.76171875 18.65234375 C-36.83654203 5.00801093 -18.98647451 0 0 0 Z " fill="#FEE04C" transform="translate(346,91)"/>
<path d="M0 0 C3.14812033 1.07676156 6.29302688 2.16263809 9.4375 3.25 C10.31599609 3.55035156 11.19449219 3.85070312 12.09960938 4.16015625 C17.87453815 6.16326808 23.45788192 8.42164031 29 11 C28.40652978 14.28101289 27.61987433 17.29713525 26.43701172 20.4128418 C26.11932831 21.25529953 25.8016449 22.09775726 25.47433472 22.96574402 C25.12960114 23.86779068 24.78486755 24.76983734 24.4296875 25.69921875 C24.0703714 26.64827591 23.7110553 27.59733307 23.34085083 28.57514954 C22.18920226 31.61399319 21.03209573 34.65072688 19.875 37.6875 C19.11945182 39.68020972 18.36424024 41.6730471 17.609375 43.66601562 C13.13380426 55.46786465 8.59676047 67.24484822 4 79 C-0.5378708 78.46453618 -4.47615844 77.63385735 -8.71484375 75.93359375 C-9.72998047 75.53076172 -10.74511719 75.12792969 -11.79101562 74.71289062 C-12.82935547 74.29201172 -13.86769531 73.87113281 -14.9375 73.4375 C-16.53561523 72.80038086 -16.53561523 72.80038086 -18.16601562 72.15039062 C-20.78016425 71.1070757 -23.39127952 70.05679767 -26 69 C-21.05580256 54.55480034 -15.72757715 40.28876761 -10.1875 26.0625 C-9.41702372 24.07628589 -8.64684026 22.08995817 -7.87695312 20.10351562 C-2.09938944 5.2075764 -2.09938944 5.2075764 0 0 Z " fill="#65E6FF" transform="translate(117,430)"/>
<path d="M0 0 C3.52344644 1.6586188 5.79901878 3.56657308 8.546875 6.3515625 C9.81337891 7.62773438 9.81337891 7.62773438 11.10546875 8.9296875 C12.41451172 10.26386719 12.41451172 10.26386719 13.75 11.625 C14.63816406 12.5221875 15.52632813 13.419375 16.44140625 14.34375 C18.63216969 16.55807004 20.81812763 18.77692435 23 21 C21.54131246 24.35999018 19.69131052 26.55203106 17.10107422 29.12597656 C16.3003952 29.92650452 15.49971619 30.72703247 14.67477417 31.55181885 C13.81014557 32.40612488 12.94551697 33.26043091 12.0546875 34.140625 C11.1696756 35.02280701 10.2846637 35.90498901 9.37283325 36.81390381 C7.02549869 39.15194543 4.67393215 41.48555874 2.32019043 43.81713867 C-0.08313927 46.19996526 -2.48077767 48.58850348 -4.87890625 50.9765625 C-9.58071467 55.65631862 -14.28818664 60.33031867 -19 65 C-22.52344644 63.3413812 -24.79901878 61.43342692 -27.546875 58.6484375 C-28.39121094 57.79765625 -29.23554688 56.946875 -30.10546875 56.0703125 C-30.97816406 55.18085937 -31.85085938 54.29140625 -32.75 53.375 C-34.08224609 52.02921875 -34.08224609 52.02921875 -35.44140625 50.65625 C-37.63216969 48.44192996 -39.81812763 46.22307565 -42 44 C-40.54131246 40.64000982 -38.69131052 38.44796894 -36.10107422 35.87402344 C-34.90005569 34.67323151 -34.90005569 34.67323151 -33.67477417 33.44818115 C-32.81014557 32.59387512 -31.94551697 31.73956909 -31.0546875 30.859375 C-30.1696756 29.97719299 -29.2846637 29.09501099 -28.37283325 28.18609619 C-26.02549869 25.84805457 -23.67393215 23.51444126 -21.32019043 21.18286133 C-18.91686073 18.80003474 -16.51922233 16.41149652 -14.12109375 14.0234375 C-9.41928533 9.34368138 -4.71181336 4.66968133 0 0 Z " fill="#FFBA33" transform="translate(451,38)"/>
<path d="M0 0 C3.35999018 1.45868754 5.55203106 3.30868948 8.12597656 5.89892578 C8.92650452 6.6996048 9.72703247 7.50028381 10.55181885 8.32522583 C11.40612488 9.18985443 12.26043091 10.05448303 13.140625 10.9453125 C14.02280701 11.8303244 14.90498901 12.7153363 15.81390381 13.62716675 C18.15194543 15.97450131 20.48555874 18.32606785 22.81713867 20.67980957 C25.19996526 23.08313927 27.58850348 25.48077767 29.9765625 27.87890625 C34.65631862 32.58071467 39.33031867 37.28818664 44 42 C42.3413812 45.52344644 40.43342692 47.79901878 37.6484375 50.546875 C36.79765625 51.39121094 35.946875 52.23554687 35.0703125 53.10546875 C34.18085938 53.97816406 33.29140625 54.85085937 32.375 55.75 C31.4778125 56.63816406 30.580625 57.52632812 29.65625 58.44140625 C27.44192996 60.63216969 25.22307565 62.81812763 23 65 C19.64000982 63.54131246 17.44796894 61.69131052 14.87402344 59.10107422 C14.07349548 58.3003952 13.27296753 57.49971619 12.44818115 56.67477417 C11.59387512 55.81014557 10.73956909 54.94551697 9.859375 54.0546875 C8.97719299 53.1696756 8.09501099 52.2846637 7.18609619 51.37283325 C4.84805457 49.02549869 2.51444126 46.67393215 0.18286133 44.32019043 C-2.19996526 41.91686073 -4.58850348 39.51922233 -6.9765625 37.12109375 C-11.65631862 32.41928533 -16.33031867 27.71181336 -21 23 C-19.3413812 19.47655356 -17.43342692 17.20098122 -14.6484375 14.453125 C-13.79765625 13.60878906 -12.946875 12.76445313 -12.0703125 11.89453125 C-11.18085938 11.02183594 -10.29140625 10.14914063 -9.375 9.25 C-8.4778125 8.36183594 -7.580625 7.47367188 -6.65625 6.55859375 C-4.44192996 4.36783031 -2.22307565 2.18187237 0 0 Z " fill="#FFE14C" transform="translate(239,38)"/>
<path d="M0 0 C20.13 0 40.26 0 61 0 C61 9.9 61 19.8 61 30 C40.87 30 20.74 30 0 30 C0 20.1 0 10.2 0 0 Z " fill="#FFBB33" transform="translate(451,151)"/>
<path d="M0 0 C9.9 0 19.8 0 30 0 C30 20.13 30 40.26 30 61 C20.1 61 10.2 61 0 61 C0 40.87 0 20.74 0 0 Z " fill="#FFBB33" transform="translate(331,0)"/>
<path d="M0 0 C1.39120471 0.00015906 2.78241534 0.00585033 4.17358398 0.01586914 C4.90463852 0.01728409 5.63569305 0.01869904 6.38890076 0.02015686 C8.73253406 0.02577131 11.07607313 0.03832617 13.41967773 0.05102539 C15.00496282 0.05603853 16.59024939 0.06060176 18.17553711 0.06469727 C22.06945383 0.07574542 25.96329979 0.09301967 29.85717773 0.11352539 C27.92334455 6.91041096 25.66393112 13.48981293 23.06420898 20.05883789 C22.71331711 20.95472626 22.36242523 21.85061462 22.00090027 22.77365112 C20.89420623 25.59675043 19.78204739 28.41765828 18.66967773 31.23852539 C17.91215169 33.1680698 17.15498694 35.09775609 16.39819336 37.02758789 C14.55535558 41.72454891 12.70761819 46.41955465 10.85717773 51.11352539 C9.29170641 50.65084762 7.72679385 50.18627908 6.16210938 49.72094727 C5.29058731 49.46244995 4.41906525 49.20395264 3.52113342 48.93762207 C-0.61751932 47.65732676 -4.66134147 46.16343602 -8.70532227 44.61352539 C-9.5103418 44.31833008 -10.31536133 44.02313477 -11.14477539 43.71899414 C-11.90854492 43.42637695 -12.67231445 43.13375977 -13.45922852 42.83227539 C-14.1444458 42.57381836 -14.82966309 42.31536133 -15.53564453 42.04907227 C-17.14282227 41.11352539 -17.14282227 41.11352539 -18.14282227 38.11352539 C-17.25696782 35.26135104 -16.29570892 32.53886869 -15.21313477 29.76196289 C-14.90334686 28.94732574 -14.59355896 28.1326886 -14.27438354 27.29336548 C-13.61784753 25.5719256 -12.95684838 23.8521823 -12.29174805 22.1340332 C-11.27044096 19.49529129 -10.2620991 16.85188775 -9.25610352 14.20727539 C-8.61752956 12.5377179 -7.97823124 10.86843725 -7.33813477 9.19946289 C-7.03392609 8.40470551 -6.72971741 7.60994812 -6.41629028 6.79110718 C-3.83683436 0.13859458 -3.83683436 0.13859458 0 0 Z " fill="#65E6FF" transform="translate(87.142822265625,360.886474609375)"/>
<path d="M0 0 C1.39120471 0.00015906 2.78241534 0.00585033 4.17358398 0.01586914 C4.90463852 0.01728409 5.63569305 0.01869904 6.38890076 0.02015686 C8.73253406 0.02577131 11.07607313 0.03832617 13.41967773 0.05102539 C15.00496282 0.05603853 16.59024939 0.06060176 18.17553711 0.06469727 C22.06945383 0.07574542 25.96329979 0.09301967 29.85717773 0.11352539 C27.92334455 6.91041096 25.66393112 13.48981293 23.06420898 20.05883789 C22.71331711 20.95472626 22.36242523 21.85061462 22.00090027 22.77365112 C20.89420623 25.59675043 19.78204739 28.41765828 18.66967773 31.23852539 C17.91215169 33.1680698 17.15498694 35.09775609 16.39819336 37.02758789 C14.55535558 41.72454891 12.70761819 46.41955465 10.85717773 51.11352539 C9.29170641 50.65084762 7.72679385 50.18627908 6.16210938 49.72094727 C5.29058731 49.46244995 4.41906525 49.20395264 3.52113342 48.93762207 C-0.61751932 47.65732676 -4.66134147 46.16343602 -8.70532227 44.61352539 C-9.5103418 44.31833008 -10.31536133 44.02313477 -11.14477539 43.71899414 C-11.90854492 43.42637695 -12.67231445 43.13375977 -13.45922852 42.83227539 C-14.1444458 42.57381836 -14.82966309 42.31536133 -15.53564453 42.04907227 C-17.14282227 41.11352539 -17.14282227 41.11352539 -18.14282227 38.11352539 C-17.25696782 35.26135104 -16.29570892 32.53886869 -15.21313477 29.76196289 C-14.90334686 28.94732574 -14.59355896 28.1326886 -14.27438354 27.29336548 C-13.61784753 25.5719256 -12.95684838 23.8521823 -12.29174805 22.1340332 C-11.27044096 19.49529129 -10.2620991 16.85188775 -9.25610352 14.20727539 C-8.61752956 12.5377179 -7.97823124 10.86843725 -7.33813477 9.19946289 C-7.03392609 8.40470551 -6.72971741 7.60994812 -6.41629028 6.79110718 C-3.83683436 0.13859458 -3.83683436 0.13859458 0 0 Z " fill="#65E6FF" transform="translate(177.142822265625,360.886474609375)"/>
<path d="M0 0 C4.95 0 9.9 0 15 0 C15 20.13 15 40.26 15 61 C10.05 61 5.1 61 0 61 C0 40.87 0 20.74 0 0 Z " fill="#FFE14D" transform="translate(331,0)"/>
</svg>
